<svg xmlns="http://www.w3.org/2000/svg" xmlns:xlink="http://www.w3.org/1999/xlink" width="800" zoomAndPan="magnify" viewBox="0 0 600 599.999999" height="800" preserveAspectRatio="xMidYMid meet" version="1.0"><defs><clipPath id="9d3e5c5a86"><path d="M 186 0 L 414 0 L 414 2.25 L 186 2.25 Z M 186 0 " clip-rule="nonzero"/></clipPath></defs><g clip-path="url(#9d3e5c5a86)"><path fill="#000000" d="M 413.410156 2.234375 L 186.589844 2.234375 L 186.589844 -0.0078125 L 413.410156 -0.0078125 L 413.410156 2.234375 " fill-opacity="1" fill-rule="nonzero"/></g><path fill="#ffffff" d="M 300 312 C 386.015625 312 456 242.015625 456 156 C 456 69.984375 386.015625 0 300 0 C 213.984375 0 144 69.984375 144 156 C 144 242.015625 213.984375 312 300 312 Z M 300 24 C 372.78125 24 432 83.21875 432 156 C 432 228.78125 372.78125 288 300 288 C 227.21875 288 168 228.78125 168 156 C 168 83.21875 227.21875 24 300 24 Z M 300 24 " fill-opacity="1" fill-rule="nonzero"/><path fill="#ffffff" d="M 457.066406 332.386719 C 452.746094 329.722656 447.214844 330.070312 443.230469 333.277344 C 402.214844 366.457031 352.679688 384 300 384 C 247.320312 384 197.796875 366.457031 156.78125 333.277344 C 152.832031 330.070312 147.277344 329.710938 142.945312 332.386719 C 53.4375 387.503906 0 483.058594 0 588 C 0 594.636719 5.375 600 12 600 L 588 600 C 594.636719 600 600 594.636719 600 588 C 600 483.058594 546.5625 387.503906 457.066406 332.386719 Z M 24.253906 576 C 28.03125 486.949219 73.738281 406.390625 148.523438 357.277344 C 192.046875 390.046875 245.496094 408 300 408 C 354.515625 408 407.964844 390.046875 451.476562 357.277344 C 526.261719 406.390625 571.96875 486.949219 575.746094 576 Z M 24.253906 576 " fill-opacity="1" fill-rule="nonzero"/></svg>